<?xml version="1.0" standalone="no"?>
<!DOCTYPE svg PUBLIC "-//W3C//DTD SVG 20010904//EN"
 "http://www.w3.org/TR/2001/REC-SVG-20010904/DTD/svg10.dtd">
<svg version="1.0" xmlns="http://www.w3.org/2000/svg"
 width="500.000000pt" height="500.000000pt" viewBox="0 0 500.000000 500.000000"
 preserveAspectRatio="xMidYMid meet">

<g transform="translate(0.000000,500.000000) scale(0.100000,-0.100000)"
fill="#000000" stroke="none">
<path d="M1616 3538 c-23 -6 -57 -29 -82 -54 -63 -63 -79 -123 -79 -304 l0
-145 34 -63 c42 -77 80 -103 164 -109 58 -5 65 -3 112 28 171 116 181 548 15
634 -40 21 -115 27 -164 13z m109 -152 c31 -31 45 -85 45 -173 0 -91 -17 -170
-41 -194 -21 -21 -78 -26 -108 -9 -33 17 -51 83 -51 183 0 76 4 101 24 143 36
77 85 96 131 50z"/>
<path d="M1093 3519 c-88 -43 -139 -130 -163 -281 -25 -157 41 -316 152 -363
75 -31 185 -15 243 37 44 38 44 61 -1 89 l-36 22 -38 -22 c-21 -11 -48 -21
-61 -21 -44 0 -89 37 -116 97 -23 50 -25 64 -20 138 3 48 14 99 24 121 37 77
110 100 161 51 l28 -27 37 31 c44 36 46 57 10 91 -65 61 -144 74 -220 37z"/>
<path d="M1987 3348 c-3 -106 -3 -256 1 -333 l7 -140 115 -3 c134 -3 177 9
233 65 50 49 78 129 84 233 11 182 -23 279 -116 340 -47 30 -49 30 -183 30
l-135 0 -6 -192z m241 17 c58 -49 79 -221 36 -294 -21 -35 -43 -49 -94 -57
l-40 -7 0 192 0 191 34 0 c22 0 45 -9 64 -25z"/>
<path d="M2507 3527 c-3 -8 -6 -119 -6 -248 -1 -129 -4 -270 -7 -314 -9 -113
-15 -110 203 -101 123 4 179 10 185 19 13 18 0 90 -19 104 -12 9 -43 11 -115
6 l-98 -6 0 76 c0 41 -3 82 -6 91 -8 20 2 23 99 31 l77 7 0 54 0 54 -90 0 -90
0 0 39 c0 22 6 43 13 48 6 4 59 10 117 13 l105 5 3 44 c2 25 1 55 -3 68 l-5
23 -179 0 c-140 0 -180 -3 -184 -13z"/>
<path d="M3854 3510 c-12 -4 -23 -14 -26 -22 -3 -7 -90 -311 -193 -675 -129
-457 -185 -671 -181 -688 9 -36 46 -51 82 -34 28 14 35 35 216 674 103 363
188 674 188 692 0 22 -7 37 -22 47 -25 18 -34 19 -64 6z"/>
<path d="M3951 3264 c-24 -30 -25 -38 -11 -64 5 -10 116 -87 245 -171 130 -83
237 -155 239 -158 2 -3 -90 -95 -206 -205 -203 -193 -209 -200 -206 -235 4
-46 43 -70 81 -49 14 7 131 114 261 237 208 198 236 228 236 255 0 17 -4 36
-8 42 -15 22 -570 374 -590 374 -11 0 -30 -12 -41 -26z"/>
<path d="M3113 3043 c-109 -104 -221 -211 -250 -239 -41 -39 -53 -57 -53 -81
0 -17 6 -36 14 -42 7 -6 139 -93 292 -192 229 -148 283 -179 304 -174 30 7 50
31 50 60 0 12 -6 28 -12 37 -7 8 -119 84 -250 167 l-236 153 111 106 c225 214
317 308 317 325 0 24 -45 67 -70 67 -13 0 -92 -69 -217 -187z"/>
<path d="M940 2741 c-13 -9 -15 -58 -11 -363 2 -218 7 -355 13 -359 13 -8 117
-11 140 -3 16 5 18 18 18 99 0 102 2 105 64 105 18 0 62 15 97 33 56 28 68 39
92 87 27 52 28 60 24 160 -6 139 -30 191 -105 230 -31 15 -312 25 -332 11z
m355 -72 c36 -40 55 -105 55 -193 0 -137 -68 -211 -209 -224 l-66 -7 -3 -97
-3 -98 -54 0 -55 0 0 331 0 330 151 -3 151 -3 33 -36z"/>
<path d="M1083 2613 c-18 -7 -18 -244 -1 -261 15 -15 41 -15 89 -2 26 7 40 19
52 45 19 40 23 155 7 185 -16 30 -105 51 -147 33z m117 -52 c22 -42 7 -154
-23 -173 -7 -4 -24 -8 -39 -8 l-28 0 0 100 0 100 40 0 c29 0 42 -5 50 -19z"/>
<path d="M1432 2728 c-5 -13 -9 -131 -10 -263 -2 -132 -5 -279 -8 -326 -6 -81
-5 -88 16 -109 23 -23 24 -23 214 -16 220 8 221 8 212 90 -9 78 -21 86 -143
86 l-103 0 0 74 0 74 88 8 87 9 3 58 c4 80 -3 87 -99 87 l-79 0 0 29 c0 37 12
41 120 41 109 0 120 8 120 86 0 98 8 94 -216 94 -193 0 -195 0 -202 -22z m381
-60 c2 -29 3 -56 0 -60 -2 -5 -53 -8 -112 -8 -70 0 -111 -4 -119 -12 -17 -17
-15 -103 2 -117 10 -9 36 -10 83 -6 78 8 97 -3 91 -52 -3 -28 -4 -28 -87 -35
-52 -4 -87 -12 -92 -20 -10 -15 -12 -169 -3 -192 5 -13 26 -16 125 -16 l119 0
0 -48 0 -49 -177 -6 c-98 -3 -182 -2 -187 3 -4 4 -5 157 -1 339 l8 331 172 0
172 0 6 -52z"/>
<path d="M1922 2728 c-5 -13 -9 -131 -10 -263 -2 -132 -5 -279 -8 -326 -6 -81
-5 -88 16 -109 23 -23 24 -23 214 -16 220 8 221 8 212 90 -9 78 -21 86 -143
86 l-103 0 0 74 0 74 88 8 87 9 3 58 c4 80 -3 87 -99 87 l-79 0 0 29 c0 37 12
41 120 41 109 0 120 8 120 86 0 98 8 94 -216 94 -193 0 -195 0 -202 -22z m381
-60 c2 -29 3 -56 0 -60 -2 -5 -53 -8 -112 -8 -70 0 -111 -4 -119 -12 -17 -17
-15 -103 2 -117 10 -9 36 -10 83 -6 78 8 97 -3 91 -52 -3 -28 -4 -28 -87 -35
-52 -4 -87 -12 -92 -20 -10 -15 -12 -169 -3 -192 5 -13 26 -16 125 -16 l119 0
0 -48 0 -49 -177 -6 c-98 -3 -182 -2 -187 3 -4 4 -5 157 -1 339 l8 331 172 0
172 0 6 -52z"/>
<path d="M2410 2741 c-12 -9 -14 -60 -11 -363 2 -254 6 -355 14 -360 19 -12
132 -9 145 4 7 7 12 39 12 74 0 78 9 126 24 121 6 -2 32 -45 58 -97 26 -51 53
-97 60 -102 22 -13 132 -9 153 6 18 13 19 17 6 53 -7 21 -30 75 -51 120 -31
66 -36 84 -25 93 32 26 57 113 57 193 -1 128 -36 208 -106 244 -36 19 -312 30
-336 14z m355 -72 c36 -40 55 -105 55 -193 0 -64 -14 -109 -48 -155 -28 -38
-31 -23 36 -179 l41 -93 -62 3 -62 3 -50 98 -50 98 -40 -3 -40 -3 -3 -95 c-2
-52 -7 -99 -12 -104 -5 -5 -29 -5 -54 -2 l-46 7 0 330 0 330 151 -3 151 -3 33
-36z"/>
<path d="M2552 2608 c-17 -17 -17 -239 0 -256 15 -15 41 -15 89 -2 28 8 40 19
54 50 22 49 23 152 1 185 -21 33 -119 48 -144 23z m116 -40 c15 -15 16 -107 1
-145 -13 -34 -26 -43 -61 -43 l-28 0 0 100 0 100 38 0 c21 0 43 -5 50 -12z"/>
</g>
</svg>
