<?xml version="1.0" standalone="no"?>
<!DOCTYPE svg PUBLIC "-//W3C//DTD SVG 20010904//EN"
 "http://www.w3.org/TR/2001/REC-SVG-20010904/DTD/svg10.dtd">
<svg version="1.0" xmlns="http://www.w3.org/2000/svg"
 width="493.000000pt" height="217.000000pt" viewBox="0 0 493.000000 217.000000"
 preserveAspectRatio="xMidYMid meet">

<g transform="translate(0.000000,217.000000) scale(0.100000,-0.100000)"
fill="#000000" stroke="none">
<path d="M290 2063 c-129 -45 -208 -155 -246 -343 -30 -151 -8 -297 61 -405
58 -90 122 -131 222 -141 124 -13 279 63 271 132 -2 20 -16 37 -44 57 l-41 28
-35 -21 c-86 -50 -144 -44 -203 21 -72 80 -90 171 -64 329 13 83 33 125 76
157 51 39 107 37 160 -4 l41 -33 46 43 c25 24 46 52 46 62 0 32 -84 102 -141
120 -65 19 -92 18 -149 -2z"/>
<path d="M904 2050 c-58 -33 -104 -86 -137 -157 -20 -44 -22 -66 -25 -269 -3
-213 -3 -223 19 -265 62 -124 106 -161 210 -179 90 -16 133 -3 201 59 66 61
100 121 129 231 29 111 31 286 5 375 -52 175 -122 235 -273 235 -68 0 -85 -4
-129 -30z m194 -184 c43 -49 56 -118 50 -269 -4 -106 -9 -132 -29 -173 -20
-41 -30 -51 -61 -58 -50 -13 -106 2 -129 34 -25 34 -39 114 -39 225 0 112 19
179 67 235 29 34 41 40 73 40 31 0 44 -6 68 -34z"/>
<path d="M1457 2073 c-10 -17 -18 -623 -10 -753 l8 -125 149 -3 c232 -4 301
28 371 171 40 83 55 163 55 299 0 200 -51 316 -170 386 -43 26 -52 27 -221 31
-103 2 -179 -1 -182 -6z m292 -220 c60 -46 91 -128 91 -248 0 -137 -41 -203
-139 -224 -29 -6 -57 -9 -62 -5 -11 6 -12 487 -1 498 12 13 83 -1 111 -21z"/>
<path d="M2173 2073 c-31 -4 -32 -5 -37 -66 -3 -34 -8 -229 -11 -433 -6 -403
-9 -386 51 -398 34 -8 422 10 448 20 19 7 22 65 5 113 -14 41 -34 45 -179 38
l-117 -5 -6 122 c-3 66 -4 123 -2 125 2 1 54 8 114 14 l111 11 0 73 0 72 -117
3 -118 3 3 44 c1 25 7 50 13 57 6 7 45 15 87 19 42 3 107 8 145 11 l67 6 0 73
c0 40 -3 80 -6 89 -5 14 -33 16 -213 14 -113 0 -220 -3 -238 -5z"/>
<path d="M3929 2035 c-24 -13 -38 -57 -182 -562 -238 -836 -347 -1238 -347
-1280 0 -23 39 -53 69 -53 66 0 74 18 220 526 262 915 364 1294 354 1321 -10
31 -46 63 -67 63 -12 -1 -33 -7 -47 -15z"/>
<path d="M4066 1709 c-35 -41 -33 -71 7 -105 17 -15 164 -114 325 -221 l293
-194 -38 -43 c-21 -24 -143 -145 -270 -271 -231 -226 -233 -227 -233 -270 0
-89 68 -101 151 -28 140 124 424 391 512 481 89 92 97 104 97 140 0 27 -7 45
-22 59 -32 29 -230 159 -448 295 -277 171 -306 188 -328 188 -11 0 -32 -14
-46 -31z"/>
<path d="M3163 1612 c-32 -27 -125 -112 -208 -189 -279 -262 -404 -388 -410
-413 -13 -55 4 -70 286 -254 491 -320 524 -337 568 -280 23 29 26 55 11 85
-11 19 -205 152 -487 333 -84 54 -155 101 -157 105 -3 4 101 108 231 232 130
123 258 250 284 282 48 57 49 59 34 87 -17 33 -52 60 -77 60 -9 0 -43 -22 -75
-48z"/>
<path d="M50 1011 c-12 -8 -16 -49 -18 -233 -5 -338 10 -717 28 -729 18 -11
174 -8 187 4 4 5 10 60 13 124 6 128 14 143 77 143 39 0 141 40 196 76 27 18
47 44 68 87 26 56 29 72 29 163 0 211 -39 305 -145 350 -48 20 -409 33 -435
15z m442 -60 c13 -11 40 -48 59 -83 34 -63 34 -64 34 -193 0 -108 -3 -136 -19
-165 -44 -83 -119 -130 -231 -145 -28 -3 -62 -8 -76 -11 l-27 -5 -7 -130 -7
-130 -72 3 -71 3 -3 425 c-1 234 0 431 3 438 3 9 52 12 198 12 177 0 196 -2
219 -19z"/>
<path d="M239 833 c-11 -12 -14 -54 -14 -168 0 -114 3 -156 14 -168 27 -33
140 -10 173 34 25 33 43 167 31 229 -7 40 -13 48 -53 68 -54 27 -131 30 -151
5z m138 -48 c29 -20 38 -86 23 -159 -13 -66 -46 -99 -94 -94 l-31 3 -3 119
c-1 66 0 126 2 133 7 18 76 17 103 -2z"/>
<path d="M709 998 c-17 -31 -36 -880 -20 -914 6 -13 22 -29 37 -34 32 -12 221
-12 377 0 149 11 167 21 167 89 0 62 -16 108 -44 123 -12 7 -79 14 -154 16
l-133 4 3 97 3 96 105 10 c58 6 111 14 118 18 17 12 16 138 -2 163 -12 16 -30
20 -118 24 -101 5 -103 5 -106 30 -5 48 8 53 154 65 163 14 164 14 164 122 0
117 10 113 -290 113 -246 0 -249 0 -261 -22z m499 -89 l3 -77 -146 -7 c-170
-8 -175 -11 -175 -91 0 -84 16 -94 135 -91 104 2 115 -3 115 -54 0 -39 -18
-48 -111 -59 -109 -14 -118 -17 -130 -47 -14 -37 -11 -216 4 -236 10 -14 35
-17 162 -19 l150 -3 0 -65 0 -65 -234 -3 c-181 -2 -237 1 -243 10 -9 13 0 866
9 881 2 4 106 6 231 5 l227 -3 3 -76z"/>
<path d="M1361 998 c-4 -13 -13 -221 -20 -463 l-12 -440 32 -29 33 -29 215 7
c308 9 327 16 315 111 -8 59 -26 100 -51 110 -10 5 -76 11 -148 14 l-130 6 0
95 0 95 110 12 c61 6 113 12 118 12 4 1 7 36 7 80 0 61 -4 82 -16 92 -11 9
-54 16 -118 19 l-101 5 2 34 c1 18 7 37 13 41 7 4 69 11 137 15 159 9 163 12
163 124 0 115 12 111 -292 111 l-248 0 -9 -22z m494 -20 c3 -7 6 -42 8 -78 l2
-65 -147 -10 c-96 -7 -152 -15 -160 -23 -8 -8 -13 -36 -12 -74 2 -84 13 -92
121 -83 106 9 125 -1 121 -58 -3 -38 -5 -42 -38 -49 -19 -4 -65 -10 -102 -13
-96 -9 -100 -14 -105 -126 -3 -52 -1 -110 4 -129 l9 -35 160 -5 159 -5 0 -65
0 -65 -244 -3 -244 -2 5 438 c2 241 8 443 12 450 11 18 445 17 451 0z"/>
<path d="M2010 1011 c-19 -13 -25 -334 -13 -704 7 -202 11 -250 23 -258 8 -5
50 -8 93 -7 61 3 82 7 91 20 7 10 16 62 19 116 6 105 13 135 30 129 6 -2 39
-55 74 -118 90 -159 81 -152 185 -147 90 4 118 16 118 49 0 11 -25 78 -55 150
-30 72 -55 136 -55 143 0 7 13 39 29 72 41 81 57 199 42 300 -20 138 -73 219
-158 244 -53 15 -404 24 -423 11z m442 -60 c13 -11 40 -48 58 -83 31 -57 34
-72 38 -169 5 -117 -3 -156 -49 -232 -16 -26 -29 -57 -29 -69 0 -11 27 -84 60
-161 33 -77 59 -142 56 -144 -2 -3 -40 -1 -84 2 l-79 7 -59 120 c-32 66 -64
124 -71 130 -7 5 -31 7 -56 3 l-45 -7 -7 -111 c-4 -61 -11 -122 -16 -135 -9
-23 -13 -24 -64 -19 -30 3 -59 8 -65 12 -11 7 -15 857 -3 868 3 4 93 7 198 7
175 0 195 -2 217 -19z"/>
<path d="M2204 836 c-17 -13 -19 -27 -19 -169 0 -184 3 -192 77 -184 106 13
139 57 146 192 4 99 -14 144 -68 162 -48 16 -112 16 -136 -1z m149 -55 c19
-19 19 -131 0 -186 -16 -44 -22 -51 -54 -59 -66 -16 -69 -12 -69 127 0 68 3
127 8 131 10 11 101 1 115 -13z"/>
</g>
</svg>
